<svg xmlns="http://www.w3.org/2000/svg" viewBox="0 0 64 64">
  <defs>
    <linearGradient id="phoenixGradient" x1="0%" y1="0%" x2="100%" y2="100%">
      <stop offset="0%" style="stop-color:#7c3aed"/>
      <stop offset="50%" style="stop-color:#a855f7"/>
      <stop offset="100%" style="stop-color:#c084fc"/>
    </linearGradient>
  </defs>
  <!-- Background circle -->
  <circle cx="32" cy="32" r="32" fill="url(#phoenixGradient)"/>
  <!-- Simplified phoenix symbol -->
  <g fill="#ffffff" transform="translate(12, 10) scale(0.625)">
    <!-- Phoenix body -->
    <path d="M32 8c-4 0-8 2-10 6-2-2-6-3-9-1 2 3 5 5 8 6-3 2-5 5-6 9 4-1 8-2 11-5 0 4 1 8 4 11 3-3 4-7 4-11 3 3 7 4 11 5-1-4-3-7-6-9 3-1 6-3 8-6-3-2-7-1-9 1-2-4-6-6-10-6z"/>
    <!-- Phoenix flames/tail -->
    <path d="M32 35c-2 4-3 8-2 13 1-3 3-6 5-8 0 4 1 8 3 12 1-4 1-8 0-12 2 2 4 5 5 8 1-5 0-9-2-13-3 2-6 3-9 0z"/>
    <!-- Wing details -->
    <path d="M18 20c-2 2-3 5-3 8 2-2 4-3 6-4-1 3-1 6 0 9 1-3 3-5 5-7-1 3 0 6 1 9 0-4 1-7 3-10-4-1-8-3-12-5z" opacity="0.8"/>
    <path d="M46 20c2 2 3 5 3 8-2-2-4-3-6-4 1 3 1 6 0 9-1-3-3-5-5-7 1 3 0 6-1 9 0-4-1-7-3-10 4-1 8-3 12-5z" opacity="0.8"/>
  </g>
</svg>
